<?xml version="1.0" encoding="utf-8"?>
<!-- Generator: Adobe Illustrator 22.0.1, SVG Export Plug-In . SVG Version: 6.00 Build 0)  -->
<svg version="1.1" id="Layer_1" xmlns="http://www.w3.org/2000/svg" xmlns:xlink="http://www.w3.org/1999/xlink" x="0px" y="0px"
	 viewBox="0 0 128 128" style="enable-background:new 0 0 128 128;" xml:space="preserve">
<style type="text/css">
	.st0{fill:#6CB5D6;}
	.st1{fill:#E0E0E0;}
	.st2{fill:#FAFAFA;}
	.st3{fill:#FBCC2F;}
	.st4{fill:#E5A315;}
	.st5{fill:#CECFD1;}
	.st6{fill:#FFFFFF;}
	.st7{fill:#E9E2CF;}
	.st8{clip-path:url(#SVGID_4_);fill:#E2D2BA;}
	.st9{fill:#F7EFDA;}
	.st10{clip-path:url(#SVGID_6_);fill:#E2D2BA;}
</style>
<g id="图层_1">
	<path class="st0" d="M83.8,13.2l-7,11.3c-0.6,0.9-1.2,0.7-1.2-0.4L77.2,11c0.1-0.7,0.7-1.2,1.3-1l4.9,1.7
		C83.9,11.9,84.2,12.6,83.8,13.2z"/>
	<path class="st0" d="M94,24.4l-12.9,3.1c-1.1,0.3-1.4-0.4-0.6-1.1l10.3-8.3c0.5-0.5,1.3-0.4,1.6,0.2l2.3,4.6
		C95,23.5,94.6,24.2,94,24.4z"/>
	<path class="st0" d="M67,12.5l4.8,12.3c0.4,1-0.2,1.4-1,0.7l-9.6-9c-0.5-0.5-0.5-1.3,0-1.6l4.2-2.9C65.9,11.6,66.7,11.8,67,12.5z"
		/>
	<g>
		<g>
			<path class="st1" d="M24,39.3l-3.2-0.2l-4.1,47.7c-0.8,8,10.5,12.2,21.4,13.3L44,41.3L24,39.3z"/>
			<path class="st1" d="M63.9,43.3l3.2,0.5l-5.4,47.6c-0.8,8-12.7,9.9-23.6,8.8L44,41.3L63.9,43.3z"/>
		</g>
		<path class="st2" d="M44.5,35.9c-5.8-0.6-11.3-0.5-15.4,0.3c-3.6,0.7-5.8,1.8-5.9,3.1c-0.1,1.2,1.8,2.8,5.2,4.2
			c3.9,1.6,9.3,2.8,15.1,3.4s11.3,0.5,15.4-0.3c3.6-0.7,5.8-1.8,5.9-3.1c0.1-1.2-1.8-2.8-5.2-4.2C55.6,37.7,50.3,36.5,44.5,35.9z"/>
		<path class="st3" d="M23.6,57.7l-2.5,26.5c0,1.5,1.1,3.1,2.7,4c2.8,1.7,8.5,3.6,15,4.2c6.2,0.6,11.5-0.1,14.7-1.1
			c2-0.6,3.7-2.1,4.1-3.5l3-26.5"/>
		
			<ellipse transform="matrix(9.999875e-02 -0.995 0.995 9.999875e-02 -21.3334 95.4907)" class="st4" cx="42.1" cy="59.5" rx="4.6" ry="18.6"/>
		<path class="st5" d="M43.3,48c-13.2-1.3-22.9-5.2-22.5-9c0.4-3.8,10.6-5.6,23.8-4.3s22.9,5.2,22.5,9C66.7,47.5,56.5,49.3,43.3,48z
			 M44.5,35.9c-5.8-0.6-11.3-0.5-15.4,0.3c-3.6,0.7-5.8,1.8-5.9,3.1c-0.1,1.2,1.8,2.8,5.2,4.2c3.9,1.6,9.3,2.8,15.1,3.4
			s11.3,0.5,15.4-0.3c3.6-0.7,5.8-1.8,5.9-3.1c0.1-1.2-1.8-2.8-5.2-4.2C55.6,37.7,50.3,36.5,44.5,35.9z"/>
		<g>
			<ellipse class="st4" cx="47.7" cy="88.7" rx="0.9" ry="0.9"/>
			<ellipse class="st4" cx="49.9" cy="86.4" rx="0.6" ry="0.6"/>
			<ellipse class="st4" cx="46.1" cy="84.9" rx="1.1" ry="1.1"/>
			<ellipse class="st4" cx="49.9" cy="84.2" rx="1.1" ry="1.1"/>
			<ellipse class="st4" cx="46.9" cy="79.1" rx="0.9" ry="0.9"/>
			<ellipse class="st4" cx="49.2" cy="79.8" rx="0.8" ry="0.8"/>
			<ellipse class="st4" cx="53" cy="75" rx="0.8" ry="0.8"/>
			<ellipse class="st4" cx="45.9" cy="69.6" rx="1" ry="1"/>
			<ellipse class="st4" cx="50.2" cy="77.3" rx="1.2" ry="1.2"/>
			<ellipse class="st4" cx="47.4" cy="73.3" rx="1.2" ry="1.2"/>
			<ellipse class="st4" cx="51.6" cy="72.2" rx="0.9" ry="0.9"/>
		</g>
		<path class="st1" d="M20.5,41.9c0,0-1.8,1.6-7.2,2c-4.7,0.3-10,2.5-11,17.9c-0.9,13.5,0.6,16.7,8.2,19.3c6.6,2.3,6.4,4.2,6.4,4.2
			l3.6-2.1l1.7-16.6l2-21.6L20.5,41.9z M18.1,63.1c-0.6,5.6-1.3,10.1-5.4,9.7c-4.3-0.4-3.9-5-3.3-10.5c0.6-5.6,1-10.1,5.4-9.7
			C19.1,53,18.7,57.5,18.1,63.1z"/>
		<path class="st6" d="M56.9,93.2c-0.5,1-2,2.9-5.8,4c-2.4,0.7-5.8,1.1-8.5,0.6C42,97.6,42.2,97,42.6,97c2.3-0.2,4.6-0.6,7.4-1.4
			c3.6-1,6.1-2.7,6.4-2.8C57,92.4,57,93,56.9,93.2z"/>
		<path class="st6" d="M32.7,51.8c-0.9-0.8-1.6-1.6-2.9-2.3c-0.6-0.4-1.6-0.5-2.5-0.6l-1.6,17.3c0,0.2,0.1,0.7,0.7,1
			c0.5,0.3,3.4,1.3,5.6,1.9c0.6,0.1,1-0.1,1-0.4l0,0l1.7-15.7C33.9,52.7,33.1,52.2,32.7,51.8z"/>
		<path class="st6" d="M13.2,46.2c-2,0.1-3.3,0.7-4.7,2.1c-1,0.9-2.4,3-2.5,5.1c0,0.2,0,1,0.3,1c0.6,0,0.8-0.7,0.8-1
			c0.2-0.9,1.5-3.3,2.3-4c1.5-1.4,3.3-1.6,4.1-1.8c0.4-0.1,1.6-0.5,1.6-0.9C15.1,46.1,13.6,46.2,13.2,46.2z"/>
		<g>
			<g>
				<path id="SVGID_1_" class="st7" d="M29.9,23.1c-0.7,0.5-1.4,1-2.3,1.1c-1.4,0.3-2.9-0.4-4.4,0c-4.2,1.2-6.5,4.4-5.4,8.6
					c0.4,1.4-0.2,2-0.7,3.3c-1.4,3.6,0.8,8.5,4.8,9.4c2.4,0.5,4.9-0.4,7.2,0.1c2,0.4,2.8,2.4,4.5,3.2c1.6,0.8,3.5,1.2,5.2,1.3
					c2.4,0.2,5.7-1.4,7.8,0.6c3.1,3,0.4,8.3,4.2,11.1c1.6,1.2,3.8,1.2,5.5,0.3c3.2-1.6,2.9-5.6,4.1-8.5c0.3-0.8,0.7-1.4,1.4-1.8
					c0.7-0.4,1.5-0.2,2.3-0.4c1.1-0.3,2.1-0.8,3-1.5c1-0.8,0.5-2.6,2.1-2.8c0.5,0,1.1-0.2,1.5-0.5c2.1-1.3,2.9-4.2,1.6-6.4
					c-0.4-0.8-0.8-1-0.8-2c0-0.8,0.2-1.5,0-2.4c-0.6-2.2-2.3-3.7-4.4-4.5c-0.4-0.1-0.8-0.3-1.2-0.4c-0.7-0.2-1.2-0.3-1.7-0.8
					c-0.2-0.3-0.4-0.7-0.6-1c-0.5-0.9-1.1-1.7-1.8-2.4c-2.2-2.1-5.3-2.8-8.2-2.7c-0.8,0-1.5,0.2-2.3,0.4c-2,0.5-2.6-0.8-4-1.8
					c-1.8-1.2-4-1.4-6.1-1.3c-1.2,0.1-2.2,0.7-3.3,1c-1.3,0.4-2,0-3.2-0.3c-1.1-0.2-2.3,0-3.4,0.2C30.8,22.6,30.3,22.9,29.9,23.1z"
					/>
			</g>
			<g>
				<defs>
					<path id="SVGID_2_" d="M29.9,23.1c-0.7,0.5-1.4,1-2.3,1.1c-1.4,0.3-2.9-0.4-4.4,0c-4.2,1.2-6.5,4.4-5.4,8.6
						c0.4,1.4-0.2,2-0.7,3.3c-1.4,3.6,0.8,8.5,4.8,9.4c2.4,0.5,4.9-0.4,7.2,0.1c2,0.4,2.8,2.4,4.5,3.2c1.6,0.8,3.5,1.2,5.2,1.3
						c2.4,0.2,5.7-1.4,7.8,0.6c3.1,3,0.4,8.3,4.2,11.1c1.6,1.2,3.8,1.2,5.5,0.3c3.2-1.6,2.9-5.6,4.1-8.5c0.3-0.8,0.7-1.4,1.4-1.8
						c0.7-0.4,1.5-0.2,2.3-0.4c1.1-0.3,2.1-0.8,3-1.5c1-0.8,0.5-2.6,2.1-2.8c0.5,0,1.1-0.2,1.5-0.5c2.1-1.3,2.9-4.2,1.6-6.4
						c-0.4-0.8-0.8-1-0.8-2c0-0.8,0.2-1.5,0-2.4c-0.6-2.2-2.3-3.7-4.4-4.5c-0.4-0.1-0.8-0.3-1.2-0.4c-0.7-0.2-1.2-0.3-1.7-0.8
						c-0.2-0.3-0.4-0.7-0.6-1c-0.5-0.9-1.1-1.7-1.8-2.4c-2.2-2.1-5.3-2.8-8.2-2.7c-0.8,0-1.5,0.2-2.3,0.4c-2,0.5-2.6-0.8-4-1.8
						c-1.8-1.2-4-1.4-6.1-1.3c-1.2,0.1-2.2,0.7-3.3,1c-1.3,0.4-2,0-3.2-0.3c-1.1-0.2-2.3,0-3.4,0.2C30.8,22.6,30.3,22.9,29.9,23.1z"
						/>
				</defs>
				<clipPath id="SVGID_4_">
					<use xlink:href="#SVGID_2_"  style="overflow:visible;"/>
				</clipPath>
				<path class="st8" d="M72.7,36.4c-0.6,1.7-2.1,3.1-3.9,3.5s-3.8-0.2-5-1.5c-0.7,0.8-2.3-0.2-2.8,0.1s-1.8,3.3-3.5,3.3
					c-1.2,1.2-3,1.6-4.7,1.2s-2.5-3.6-3.3-3.5s-1.3,1.1-2.1,1.1c-0.4,0-0.8-0.1-1.2,0c-0.8,0.2-1.1,1.2-1.8,1.6
					c-0.7,0.4-1.6,0.2-2.3,0.3c-0.5,0.1-0.9,0.4-1.4,0.6c-1.8,0.9-4,0.9-5.9,0.1c-1.8-0.8-3.3-2.5-3.8-4.5c-1.2,1.2-4.2,1.8-5.1,1.5
					c-0.9-0.3-1.9,1.3-3.1,1.5c-1.3,0.1-2.6,0.2-3.8-0.1s-2.4-1.2-2.6-2.5c-0.6,1.6-1.5,3.1-2.6,4.4c4.2,2.5,8.5,5,12.8,7.5
					c0.6,0.3,1.2,0.7,1.6,1.2c1,1.2,0.9,3,1.8,4.3c1,1.3,2.9,1.5,4.5,1.7c1.6,0.1,3.2,0.2,4.8,0.4c0.7,0.1,1.5,0.1,2.1,0.5
					c1.7,1.1,1.3,3.9,2.6,5.4c1.1,1.2,2.8,1.2,4.4,1.2c4.4-0.1,8.9-0.2,13.3-0.3c0.4,0,0.8,0,1.2-0.2c0.5-0.2,0.9-0.7,1.3-1.1
					c3-3.5,6.5-6.5,10.3-8.9c1-0.6,2-1.2,2.7-2.2c0.6-0.8,0.8-1.9,1-2.9c0.2-1.1,0.5-2.2,0.7-3.2c0.1-0.5,0.2-0.9,0.1-1.4
					c-0.1-0.6-0.6-1.1-1-1.6c-1.1-1.3-1.9-2.7-2.5-4.3c-0.3-0.7-0.5-1.5-1-2.1c-0.5-0.6-1.3-1.1-2.1-0.9"/>
			</g>
		</g>
		<path class="st9" d="M50.8,50.1c1.2,1.2,1.1,3.2,1.1,4.9c-0.1,1.8,0.2,5,1.3,4.9c0.8-0.2,1.1-1.2,1.2-2.1c0.2-2.1,0.5-4.3-0.2-6.2
			c-0.3-0.9-0.8-1.7-1.6-2.2C52,49,49.9,48.7,50.8,50.1"/>
	</g>
	<g>
		<g>
			<path class="st1" d="M103.3,52.4l3.2-0.3l5.5,47.6c1,8-10.2,12.5-21,13.9L83.5,55L103.3,52.4z"/>
			<path class="st1" d="M63.6,57.5l-3.2,0.6l6.8,47.4c1,8,13,9.5,23.8,8.1l-7.6-58.7L63.6,57.5z"/>
		</g>
		<path class="st2" d="M82.8,49.5c5.8-0.7,11.2-0.8,15.4-0.1c3.6,0.6,5.8,1.7,6,2.9c0.2,1.2-1.7,2.8-5.1,4.3
			c-3.9,1.7-9.2,3.1-14.9,3.8s-11.2,0.8-15.4,0.1c-3.6-0.6-5.8-1.7-6-2.9c-0.2-1.2,1.7-2.8,5.1-4.3C71.7,51.7,77,50.3,82.8,49.5z"/>
		<path class="st3" d="M104.3,70.7l3.2,26.5c0,1.5-1,3.1-2.6,4.1c-2.8,1.8-8.4,3.8-14.9,4.7c-6.2,0.8-11.5,0.2-14.7-0.7
			c-2-0.6-3.8-2-4.2-3.4l-3.7-26.4"/>
		<ellipse transform="matrix(0.9918 -0.1281 0.1281 0.9918 -8.6606 11.595)" class="st4" cx="85.8" cy="73.1" rx="18.6" ry="4.6"/>
		<path class="st5" d="M60.4,58c-0.5-3.8,9.1-7.9,22.2-9.6c13.2-1.7,23.4-0.1,23.9,3.6s-9.1,7.9-22.2,9.6S60.9,61.8,60.4,58z
			 M67.8,53.4c-3.3,1.5-5.2,3.1-5.1,4.3s2.4,2.3,6,2.9c4.2,0.7,9.7,0.6,15.4-0.1s11.1-2.1,14.9-3.8c3.3-1.5,5.2-3.1,5.1-4.3
			s-2.4-2.3-6-2.9c-4.2-0.7-9.7-0.6-15.4,0.1S71.7,51.7,67.8,53.4z"/>
		<g>
			<ellipse class="st4" cx="81" cy="102.4" rx="0.9" ry="0.9"/>
			<ellipse class="st4" cx="78.8" cy="100.2" rx="0.6" ry="0.6"/>
			<ellipse class="st4" cx="82.5" cy="98.6" rx="1.1" ry="1.1"/>
			<ellipse class="st4" cx="78.7" cy="98" rx="1.1" ry="1.1"/>
			<ellipse class="st4" cx="81.6" cy="92.8" rx="0.9" ry="0.9"/>
			<ellipse class="st4" cx="79.3" cy="93.5" rx="0.8" ry="0.8"/>
			<ellipse class="st4" cx="75.4" cy="88.9" rx="0.8" ry="0.8"/>
			<ellipse class="st4" cx="82.3" cy="83.3" rx="1" ry="1"/>
			<ellipse class="st4" cx="78.2" cy="91.1" rx="1.2" ry="1.2"/>
			<ellipse class="st4" cx="80.9" cy="87" rx="1.2" ry="1.2"/>
			<ellipse class="st4" cx="76.7" cy="86.1" rx="0.9" ry="0.9"/>
		</g>
		<path class="st1" d="M125.8,74.3c-1.5-15.4-6.8-17.4-11.5-17.6c-5.5-0.2-7.3-1.8-7.3-1.8l-3.5,3.3l2.6,21.5l2.1,16.6l3.7,1.9
			c0,0-0.2-1.9,6.3-4.3C125.7,91.1,127.1,87.8,125.8,74.3z M115.5,85.5c-4.1,0.5-4.9-4-5.6-9.5s-1.3-10.1,3-10.6s4.9,4,5.6,9.5
			C119.3,80.4,119.8,84.9,115.5,85.5z"/>
		<path class="st6" d="M107.8,102.7c-0.3,1.1-1.3,3.2-4.9,5.1c-2.2,1.1-5.4,2.3-8.2,2.3c-0.6,0-0.5-0.6-0.1-0.7
			c2.2-0.7,4.4-1.5,6.9-2.8c3.3-1.8,5.4-3.8,5.7-4.1C107.8,101.9,107.8,102.5,107.8,102.7z"/>
		<path class="st6" d="M114.3,59c2,0.1,3.3,0.6,4.8,2c1,0.9,2.4,3,2.6,5c0,0.2,0,1-0.3,1c-0.6,0-0.8-0.6-0.9-0.9
			c-0.3-0.9-1.6-3.2-2.4-3.9c-1.5-1.3-3.3-1.5-4.1-1.7c-0.4-0.1-1.6-0.5-1.6-0.9C112.5,58.9,113.9,59,114.3,59z"/>
		<g>
			<g>
				<path id="SVGID_3_" class="st7" d="M97,36.4c0.8,0.4,1.5,0.9,2.3,1.1c1.4,0.2,2.8-0.5,4.3-0.1c4.3,1.1,6.6,4.2,5.6,8.5
					c-0.3,1.4,0.3,2,0.8,3.3c1.4,3.5-0.5,8.5-4.5,9.5c-2.4,0.6-4.9-0.3-7.2,0.3c-2,0.5-2.8,2.5-4.4,3.4c-1.6,0.9-3.4,1.3-5.2,1.5
					c-2.4,0.2-5.8-1.2-7.7,0.8c-3,3.1-0.1,8.3-3.9,11.2c-1.5,1.2-3.8,1.3-5.5,0.5c-3.3-1.5-3.1-5.5-4.3-8.4
					c-0.3-0.8-0.7-1.4-1.5-1.8c-0.8-0.4-1.5-0.2-2.3-0.4c-1.1-0.3-2.1-0.7-3-1.4c-1-0.8-0.6-2.6-2.2-2.7c-0.5,0-1.1-0.2-1.5-0.4
					c-2.2-1.2-3-4.2-1.8-6.3c0.4-0.8,0.8-1.1,0.8-2c0-0.8-0.3-1.5-0.1-2.4c0.5-2.2,2.2-3.7,4.3-4.6c0.4-0.2,0.8-0.3,1.2-0.4
					c0.7-0.2,1.2-0.3,1.7-0.9c0.2-0.3,0.4-0.7,0.5-1c0.4-0.9,1.1-1.7,1.8-2.4c2.1-2.1,5.2-2.9,8.2-2.9c0.8,0,1.5,0.2,2.3,0.4
					c2,0.4,2.5-0.9,3.9-1.9c1.7-1.2,4-1.5,6.1-1.5c1.2,0,2.2,0.6,3.3,0.9c1.3,0.4,2-0.1,3.2-0.4c1.1-0.2,2.3-0.1,3.4,0.1
					C96.1,35.9,96.6,36.1,97,36.4z"/>
			</g>
			<g>
				<defs>
					<path id="SVGID_5_" d="M97,36.4c0.8,0.4,1.5,0.9,2.3,1.1c1.4,0.2,2.8-0.5,4.3-0.1c4.3,1.1,6.6,4.2,5.6,8.5
						c-0.3,1.4,0.3,2,0.8,3.3c1.4,3.5-0.5,8.5-4.5,9.5c-2.4,0.6-4.9-0.3-7.2,0.3c-2,0.5-2.8,2.5-4.4,3.4c-1.6,0.9-3.4,1.3-5.2,1.5
						c-2.4,0.2-5.8-1.2-7.7,0.8c-3,3.1-0.1,8.3-3.9,11.2c-1.5,1.2-3.8,1.3-5.5,0.5c-3.3-1.5-3.1-5.5-4.3-8.4
						c-0.3-0.8-0.7-1.4-1.5-1.8c-0.8-0.4-1.5-0.2-2.3-0.4c-1.1-0.3-2.1-0.7-3-1.4c-1-0.8-0.6-2.6-2.2-2.7c-0.5,0-1.1-0.2-1.5-0.4
						c-2.2-1.2-3-4.2-1.8-6.3c0.4-0.8,0.8-1.1,0.8-2c0-0.8-0.3-1.5-0.1-2.4c0.5-2.2,2.2-3.7,4.3-4.6c0.4-0.2,0.8-0.3,1.2-0.4
						c0.7-0.2,1.2-0.3,1.7-0.9c0.2-0.3,0.4-0.7,0.5-1c0.4-0.9,1.1-1.7,1.8-2.4c2.1-2.1,5.2-2.9,8.2-2.9c0.8,0,1.5,0.2,2.3,0.4
						c2,0.4,2.5-0.9,3.9-1.9c1.7-1.2,4-1.5,6.1-1.5c1.2,0,2.2,0.6,3.3,0.9c1.3,0.4,2-0.1,3.2-0.4c1.1-0.2,2.3-0.1,3.4,0.1
						C96.1,35.9,96.6,36.1,97,36.4z"/>
				</defs>
				<clipPath id="SVGID_6_">
					<use xlink:href="#SVGID_5_"  style="overflow:visible;"/>
				</clipPath>
				<path class="st10" d="M54.6,50.9c0.6,1.7,2.2,3,4,3.4s3.8-0.3,5-1.7c0.7,0.8,2.3-0.3,2.8,0s1.9,3.2,3.6,3.2
					c1.2,1.1,3.1,1.6,4.7,1s2.4-3.6,3.2-3.6s1.3,1,2.1,1c0.4,0,0.8-0.1,1.2,0c0.8,0.2,1.2,1.2,1.9,1.6c0.7,0.4,1.6,0.1,2.3,0.3
					c0.5,0.1,0.9,0.4,1.4,0.6c1.8,0.8,4.1,0.8,5.9-0.1c1.8-0.9,3.2-2.6,3.7-4.6c1.3,1.1,4.3,1.7,5.1,1.3c0.8-0.4,1.9,1.3,3.1,1.4
					c1.3,0.1,2.6,0.2,3.8-0.2c1.2-0.4,2.3-1.3,2.5-2.6c0.7,1.6,1.6,3,2.8,4.3c-4.2,2.6-8.3,5.3-12.5,7.9c-0.6,0.4-1.2,0.7-1.6,1.3
					c-0.9,1.2-0.8,3.1-1.7,4.3c-1,1.3-2.8,1.6-4.5,1.8c-1.6,0.2-3.2,0.3-4.8,0.5c-0.7,0.1-1.5,0.2-2.1,0.6c-1.7,1.2-1.2,3.9-2.5,5.5
					c-1,1.2-2.8,1.3-4.4,1.3c-4.4,0.1-8.9,0.1-13.3,0c-0.4,0-0.8,0-1.2-0.2c-0.5-0.2-0.9-0.6-1.3-1.1c-3.1-3.4-6.7-6.3-10.6-8.6
					c-1-0.6-2-1.2-2.7-2.1c-0.6-0.8-0.9-1.9-1.1-2.9c-0.3-1.1-0.5-2.2-0.8-3.2c-0.1-0.5-0.2-0.9-0.2-1.4c0.1-0.6,0.5-1.2,0.9-1.7
					c1-1.3,1.8-2.8,2.4-4.4c0.3-0.8,0.5-1.5,1-2.2c0.5-0.6,1.3-1.1,2-0.9"/>
			</g>
		</g>
		<path class="st9" d="M76.8,63.9c-1.1,1.3-1.1,3.2-0.9,4.9c0.1,1.8,0,5-1.2,5c-0.8-0.2-1.1-1.2-1.3-2c-0.3-2.1-0.6-4.2,0-6.2
			c0.3-0.9,0.8-1.7,1.5-2.2C75.7,62.8,77.7,62.5,76.8,63.9"/>
	</g>
</g>
</svg>
